<svg xmlns="http://www.w3.org/2000/svg" width="520" height="150" viewBox="0 0 520 150"><rect width="520" height="150" fill="#edf3f5"/><g stroke="#52727c" fill="none" stroke-width="2"><path d="M30 40 Q150 20 260 40 T500 40 M30 75 Q150 55 260 75 T500 75 M30 110 Q150 90 260 110 T500 110"/><path d="M70 25 Q90 75 70 125 M170 25 Q190 75 170 125 M270 25 Q290 75 270 125 M370 25 Q390 75 370 125 M470 25 Q490 75 470 125"/><ellipse cx="270" cy="77" rx="55" ry="25" stroke="#c75a36" stroke-width="4"/><circle cx="270" cy="52" r="10" fill="#c75a36"/></g><g font-family="Arial" font-size="13" fill="#222"><text x="30" y="20">relational fabric</text><text x="335" y="65">deformation</text><text x="335" y="90">curvature response</text><text x="335" y="115">wave-like disturbance</text></g></svg>
